<svg xmlns="http://www.w3.org/2000/svg" viewBox="0 0 100 100" width="100" height="100">
  <!-- Shield Shape -->
  <path d="M50 5 L90 20 L90 55 Q90 85 50 95 Q10 85 10 55 L10 20 Z" fill="#cc0000"/>
  <path d="M50 10 L85 23 L85 52 Q85 78 50 88 Q15 78 15 52 L15 23 Z" fill="#1a1a1a"/>
  
  <!-- Flame -->
  <path d="M50 25 
           C38 38 38 50 46 58 
           C42 52 40 46 44 40 
           C42 48 44 55 50 60 
           C56 55 58 48 56 40 
           C60 46 58 52 54 58 
           C62 50 62 38 50 25" 
        fill="#ff6600"/>
  
  <!-- Flame Inner -->
  <path d="M50 30 
           C43 40 43 48 48 54 
           C45 50 44 46 46 42 
           C45 48 46 52 50 55 
           C54 52 55 48 54 42 
           C56 46 55 50 52 54 
           C57 48 57 40 50 30" 
        fill="#ffcc00"/>
  
  <!-- Border Accent -->
  <path d="M50 8 L83 21 L83 52 Q83 75 50 84 Q17 75 17 52 L17 21 Z" 
        fill="none" stroke="#ffcc00" stroke-width="2"/>
</svg>